# xmcd
#
# Track frame offsets:
#	150
#	16914
#	29868
#	45574
#	64226
#	80768
#	102012
#	118149
#	133743
#	152079
#	164972
#
# Disc length: 2550 seconds
#
# Revision: 0
# Processed by: cddbd v1.5.2PL0 Copyright (c) Steve Scherf et al.
# Submitted via: EZCDAudioConverter 2.2.2.1
#
DISCID=9c09f40b
DTITLE=Working Mojo - Got my suit right on
DYEAR=2008
DGENRE=
TTITLE0=Got my suit right on
TTITLE1=Memphis City shuffle
TTITLE2=Teardrops are falling
TTITLE3=Midnight is coming
TTITLE4=Everyday I have the blues
TTITLE5=The welfare
TTITLE6=Good rocking tonight
TTITLE7=I got wasted
TTITLE8=Hoochie ccochie man
TTITLE9=Missing with the kid
TTITLE10=Tear down this building
EXTD=
EXTT0=
EXTT1=
EXTT2=
EXTT3=
EXTT4=
EXTT5=
EXTT6=
EXTT7=
EXTT8=
EXTT9=
EXTT10=
PLAYORDER=
